# xmcd
#
# Track frame offsets:
#	150
#	10595
#	26790
#	43325
#	66072
#	87250
#	126432
#	156192
#	173336
#
# Disc length: 2545 seconds
# Revision: 0
# Processed by: cddbd v1.5.2PL0 Copyright (c) Steve Scherf et al.
# Submitted via: dBpowerAMP V12.0
#
DISCID=6c09ef09
DTITLE=Tom Waits - Foreign Affairs
DYEAR=1977
DGENRE=Blues
TTITLE0=Cinny's Waltz
TTITLE1=Muriel
TTITLE2=I Never Talk To Strangers
TTITLE3=California, Here I Come
TTITLE4=A Sight For Sore Eyes
TTITLE5=Potter's Field
TTITLE6=Burma-Shave
TTITLE7=Barber Shop
TTITLE8=Foreign Affair
EXTD=
EXTT0=
EXTT1=
EXTT2=
EXTT3=
EXTT4=
EXTT5=
EXTT6=
EXTT7=
EXTT8=
PLAYORDER=
